<?xml version="1.0" standalone="no"?>
<!DOCTYPE svg PUBLIC "-//W3C//DTD SVG 20010904//EN"
 "http://www.w3.org/TR/2001/REC-SVG-20010904/DTD/svg10.dtd">
<svg version="1.0" xmlns="http://www.w3.org/2000/svg"
 width="220.000000pt" height="229.000000pt" viewBox="0 0 220.000000 229.000000"
 preserveAspectRatio="xMidYMid meet">

<g transform="translate(0.000000,229.000000) scale(0.100000,-0.100000)"
fill="#000000" stroke="none">
<path d="M558 2173 c12 -2 32 -2 45 0 12 2 2 4 -23 4 -25 0 -35 -2 -22 -4z"/>
<path d="M1770 2081 c-43 -23 -80 -84 -80 -134 0 -75 66 -157 128 -157 19 0
22 -5 22 -40 0 -29 -5 -42 -19 -50 -28 -14 -396 -13 -437 2 -25 9 -34 19 -39
45 -8 44 -65 100 -109 108 -93 18 -176 -48 -176 -140 0 -19 -4 -35 -10 -35 -5
0 -10 -4 -10 -10 0 -5 6 -10 13 -10 8 0 20 -11 27 -25 8 -14 28 -35 46 -46 33
-20 33 -21 37 -107 l3 -87 2 88 2 87 39 0 c49 0 101 34 124 83 10 20 25 37 33
37 17 0 18 -12 3 -27 -6 -6 -10 -65 -10 -153 l0 -142 -24 6 c-25 6 -31 0 -17
-19 7 -10 10 -11 63 -13 23 -2 30 -6 25 -17 -3 -8 2 -18 12 -23 21 -11 73 0
54 12 -6 4 -17 4 -22 1 -6 -4 -10 -3 -9 2 1 4 0 13 -2 18 -1 6 -3 83 -3 172
l-1 163 182 0 c115 0 191 4 207 11 24 11 46 53 46 88 0 9 20 25 49 37 88 39
116 146 59 230 -43 63 -137 83 -208 45z m158 -33 c15 -15 16 -38 0 -38 -6 0
-27 -12 -46 -26 -30 -24 -34 -31 -29 -62 4 -19 14 -43 23 -53 10 -11 15 -21
12 -24 -3 -3 -14 7 -24 22 l-18 28 -7 -25 c-5 -21 -8 -16 -14 27 l-7 51 -44
-24 c-55 -31 -57 -18 -4 22 22 16 40 32 40 36 0 4 16 15 36 24 20 9 41 25 47
36 14 21 19 22 35 6z m-127 -194 c-11 -15 -21 -24 -21 -20 0 12 33 57 37 52 3
-3 -4 -17 -16 -32z m-563 -92 c15 -32 22 -37 55 -40 33 -3 37 -6 37 -32 l0
-29 -125 0 -125 -1 0 30 c0 27 3 30 33 30 27 0 37 6 47 28 20 39 41 62 52 56
5 -3 16 -22 26 -42z m177 -112 c7 -21 -2 -291 -10 -298 -2 -2 -8 -1 -14 3 -12
7 -16 297 -4 308 12 12 22 7 28 -13z"/>
<path d="M1188 1703 c6 -2 18 -2 25 0 6 3 1 5 -13 5 -14 0 -19 -2 -12 -5z"/>
<path d="M422 2025 c0 -16 2 -22 5 -12 2 9 2 23 0 30 -3 6 -5 -1 -5 -18z"/>
<path d="M863 2023 c26 -2 67 -2 90 0 23 2 2 3 -48 3 -49 0 -68 -1 -42 -3z"/>
<path d="M1000 2010 c0 -5 5 -10 11 -10 5 0 7 5 4 10 -3 6 -8 10 -11 10 -2 0
-4 -4 -4 -10z"/>
<path d="M1020 1953 c0 -15 5 -35 10 -43 7 -11 10 -6 10 22 0 20 -4 40 -10 43
-6 4 -10 -6 -10 -22z"/>
<path d="M465 1920 c10 -11 20 -20 23 -20 3 0 -3 9 -13 20 -10 11 -20 20 -23
20 -3 0 3 -9 13 -20z"/>
<path d="M269 1897 c-47 -31 -71 -81 -66 -136 6 -55 32 -91 85 -116 24 -12 41
-27 42 -37 0 -31 22 -66 47 -77 13 -6 77 -11 144 -11 121 0 159 -8 159 -35 0
-11 -12 -15 -46 -15 -45 0 -83 -13 -96 -34 -13 -20 3 -25 22 -6 15 15 34 20
70 20 l49 0 7 -50 c5 -37 13 -56 32 -71 l26 -20 -41 -42 c-47 -49 -78 -93 -87
-124 -6 -19 -4 -23 13 -23 26 0 51 25 73 73 10 21 29 43 44 49 15 7 27 23 31
39 5 24 11 28 54 34 26 4 53 13 60 21 6 8 23 14 38 14 14 1 37 7 51 15 14 8
42 14 63 15 33 0 37 3 37 25 0 33 -37 35 -42 3 -2 -13 -2 35 -1 106 2 84 0
133 -8 142 -6 7 -7 19 -3 26 13 20 17 116 5 98 -6 -8 -11 -34 -11 -57 l0 -43
-60 0 c-33 0 -60 -4 -60 -10 0 -6 27 -10 60 -10 l60 0 0 -118 0 -117 -60 -16
-59 -16 -10 28 c-13 39 -46 53 -118 51 -59 -2 -63 -1 -77 27 -9 16 -23 31 -31
35 -9 3 -72 6 -139 6 -133 0 -160 9 -168 55 -5 22 0 28 36 44 64 28 96 72 96
133 0 62 -23 104 -72 129 -50 26 -107 24 -149 -4z m155 -58 c24 -27 27 -38 23
-71 -6 -46 -21 -67 -62 -84 -65 -27 -135 18 -135 88 0 49 13 73 48 93 40 23
91 12 126 -26z m442 -414 c13 -20 14 -28 4 -40 -7 -8 -19 -15 -26 -15 -8 0
-22 -9 -31 -20 -42 -49 -113 -5 -105 64 l4 36 69 0 c62 0 70 -2 85 -25z"/>
<path d="M294 1845 c-16 -12 -17 -14 -3 -15 9 0 19 7 23 15 7 19 5 19 -20 0z"/>
<path d="M326 1845 c-3 -8 -1 -15 4 -15 6 0 10 7 10 15 0 8 -2 15 -4 15 -2 0
-6 -7 -10 -15z"/>
<path d="M350 1846 c0 -9 5 -16 10 -16 6 0 10 4 10 9 0 6 -4 13 -10 16 -5 3
-10 -1 -10 -9z"/>
<path d="M380 1852 c0 -12 19 -26 26 -19 2 2 -2 10 -11 17 -9 8 -15 8 -15 2z"/>
<path d="M267 1813 c-12 -11 -7 -33 7 -33 12 0 26 20 26 36 0 7 -26 5 -33 -3z"/>
<path d="M310 1800 c0 -11 7 -20 15 -20 8 0 15 9 15 20 0 11 -7 20 -15 20 -8
0 -15 -9 -15 -20z"/>
<path d="M350 1805 c0 -15 26 -32 36 -23 2 3 2 13 -2 22 -8 20 -34 21 -34 1z"/>
<path d="M400 1800 c0 -11 7 -20 15 -20 8 0 15 9 15 20 0 11 -7 20 -15 20 -8
0 -15 -9 -15 -20z"/>
<path d="M260 1755 c0 -15 26 -32 36 -23 2 3 2 13 -2 22 -8 20 -34 21 -34 1z"/>
<path d="M310 1750 c0 -11 7 -20 15 -20 8 0 15 9 15 20 0 11 -7 20 -15 20 -8
0 -15 -9 -15 -20z"/>
<path d="M350 1750 c0 -24 25 -27 34 -4 9 23 8 24 -14 24 -13 0 -20 -7 -20
-20z"/>
<path d="M400 1750 c0 -11 6 -20 14 -20 7 0 16 9 19 20 4 15 0 20 -14 20 -12
0 -19 -7 -19 -20z"/>
<path d="M280 1715 c0 -2 9 -9 20 -15 16 -9 18 -8 14 5 -5 13 -34 22 -34 10z"/>
<path d="M326 1705 c4 -8 8 -15 10 -15 2 0 4 7 4 15 0 8 -4 15 -10 15 -5 0 -7
-7 -4 -15z"/>
<path d="M350 1704 c0 -8 5 -12 10 -9 6 3 10 10 10 16 0 5 -4 9 -10 9 -5 0
-10 -7 -10 -16z"/>
<path d="M385 1710 c-3 -5 -2 -10 4 -10 5 0 13 5 16 10 3 6 2 10 -4 10 -5 0
-13 -4 -16 -10z"/>
<path d="M2080 1892 c0 -7 -11 -12 -25 -12 -21 0 -25 -5 -25 -30 0 -25 4 -30
25 -30 14 0 25 -5 25 -11 0 -7 9 0 20 14 11 14 20 28 20 31 0 4 -9 16 -20 28
-11 12 -20 16 -20 10z"/>
<path d="M1376 1863 c-12 -12 -6 -43 9 -43 8 0 15 9 15 19 0 21 -13 34 -24 24z"/>
<path d="M616 1759 c4 -7 0 -9 -14 -5 -24 8 -62 -35 -61 -68 1 -17 2 -15 9 7
5 16 14 35 21 43 13 16 33 19 23 3 -3 -6 8 -4 24 5 33 17 68 23 44 7 -11 -7
-10 -9 3 -14 9 -4 13 -3 10 3 -9 14 12 12 25 -2 6 -7 20 -28 30 -45 18 -31 50
-45 50 -23 0 6 -8 10 -19 10 -11 0 -23 12 -31 30 -7 17 -25 37 -41 45 -34 18
-83 20 -73 4z"/>
<path d="M1726 1762 c-2 -4 0 -14 5 -22 8 -13 10 -13 18 0 10 15 6 30 -9 30
-5 0 -11 -4 -14 -8z"/>
<path d="M2043 1763 c9 -2 23 -2 30 0 6 3 -1 5 -18 5 -16 0 -22 -2 -12 -5z"/>
<path d="M84 1729 c-15 -17 -15 -21 1 -46 11 -16 20 -23 23 -15 2 6 15 12 28
12 20 0 24 5 24 29 0 24 -5 29 -30 33 -20 3 -35 -1 -46 -13z"/>
<path d="M1949 1723 c-13 -16 -12 -17 4 -4 9 7 17 15 17 17 0 8 -8 3 -21 -13z"/>
<path d="M661 1687 c2 -1 12 -9 22 -16 15 -12 17 -12 11 3 -3 9 -13 16 -22 16
-8 0 -13 -1 -11 -3z"/>
<path d="M573 1673 c4 -6 3 -14 -3 -18 -5 -3 -10 -12 -10 -18 0 -8 2 -9 8 -1
4 6 13 13 21 15 10 4 9 8 -5 19 -10 8 -15 10 -11 3z"/>
<path d="M810 1670 c0 -5 14 -10 30 -10 17 0 30 5 30 10 0 6 -13 10 -30 10
-16 0 -30 -4 -30 -10z"/>
<path d="M541 1644 c-1 -12 11 -33 25 -48 27 -26 54 -35 54 -16 0 5 -7 6 -17
3 -10 -4 -14 -2 -9 5 6 11 -10 27 -29 27 -5 0 -12 11 -16 25 -6 22 -7 22 -8 4z"/>
<path d="M720 1628 c-8 -18 -22 -34 -30 -37 -13 -4 -13 -2 0 14 15 18 14 18
-12 1 -31 -20 -36 -36 -12 -36 20 0 74 54 74 74 0 22 -3 20 -20 -16z"/>
<path d="M2078 1633 c7 -3 16 -2 19 1 4 3 -2 6 -13 5 -11 0 -14 -3 -6 -6z"/>
<path d="M450 1605 c0 -11 7 -15 23 -13 12 2 22 8 22 13 0 6 -10 11 -22 13
-16 2 -23 -2 -23 -13z"/>
<path d="M1878 1613 c7 -3 16 -2 19 1 4 3 -2 6 -13 5 -11 0 -14 -3 -6 -6z"/>
<path d="M1827 1583 c-4 -3 -7 -13 -7 -22 1 -13 3 -13 11 2 11 19 8 33 -4 20z"/>
<path d="M505 1500 c-9 -15 4 -30 20 -23 8 3 15 9 15 13 0 12 -29 20 -35 10z"/>
<path d="M936 1475 c4 -9 13 -15 21 -13 23 5 20 23 -4 26 -18 3 -21 0 -17 -13z"/>
<path d="M2038 1483 c6 -2 18 -2 25 0 6 3 1 5 -13 5 -14 0 -19 -2 -12 -5z"/>
<path d="M1110 1400 c0 -18 3 -19 20 -10 11 6 20 15 20 20 0 6 -9 10 -20 10
-13 0 -20 -7 -20 -20z"/>
<path d="M1185 1400 c3 -5 13 -10 21 -10 8 0 14 5 14 10 0 6 -9 10 -21 10 -11
0 -17 -4 -14 -10z"/>
<path d="M1250 1396 c0 -2 7 -6 15 -10 8 -3 15 -1 15 4 0 6 -7 10 -15 10 -8 0
-15 -2 -15 -4z"/>
<path d="M1803 1363 c-7 -15 -11 -28 -9 -31 6 -6 28 38 24 48 -2 5 -9 -3 -15
-17z"/>
<path d="M1618 1323 c28 -2 76 -2 105 0 28 2 5 3 -53 3 -58 0 -81 -1 -52 -3z"/>
<path d="M256 1284 c-6 -17 7 -26 28 -18 22 8 20 21 -3 27 -11 3 -22 -1 -25
-9z"/>
<path d="M1460 1260 c0 -5 6 -10 14 -10 8 0 23 -11 34 -25 19 -24 25 -25 115
-25 124 0 135 -8 144 -105 7 -84 22 -105 75 -105 31 0 41 -5 48 -22 8 -21 9
-21 8 7 -2 32 28 105 43 105 5 0 9 6 9 13 -1 17 -41 -33 -52 -65 -9 -24 -16
-28 -47 -28 -55 0 -71 23 -71 99 0 52 -4 66 -25 86 -22 23 -32 25 -127 26 -57
1 -90 4 -74 6 l28 5 -23 24 c-16 17 -33 24 -61 24 -21 0 -38 -4 -38 -10z"/>
<path d="M200 1240 c8 -5 20 -10 25 -10 6 0 3 5 -5 10 -8 5 -19 10 -25 10 -5
0 -3 -5 5 -10z"/>
<path d="M1530 1185 c0 -3 7 -17 16 -30 10 -15 17 -48 18 -81 1 -49 -2 -58
-26 -79 -16 -13 -28 -31 -28 -39 0 -22 -69 -57 -127 -63 -48 -5 -53 -8 -58
-35 -4 -16 -29 -51 -55 -77 -41 -40 -58 -50 -110 -61 -47 -10 -67 -10 -86 -1
-22 10 -33 8 -68 -10 -32 -16 -57 -20 -98 -18 -36 3 -60 0 -67 -8 -7 -7 -20
-13 -31 -13 -10 0 -22 -4 -25 -10 -10 -15 -68 -12 -93 6 -28 20 -52 65 -52
101 -1 15 -7 39 -15 53 -8 14 -14 42 -15 63 0 29 -4 37 -19 37 -16 0 -17 -5
-10 -50 10 -65 32 -112 117 -254 71 -117 102 -193 102 -248 0 -16 -16 -101
-35 -189 -19 -88 -35 -165 -35 -170 0 -5 129 -9 318 -9 l319 0 18 85 c9 46 23
89 30 95 7 6 48 14 90 18 62 6 80 11 91 28 12 17 11 25 -5 57 -13 25 -20 65
-23 129 -4 79 -10 107 -42 186 -45 110 -41 124 28 98 57 -22 70 -38 62 -78 -9
-54 3 -63 65 -48 81 19 81 19 72 32 -79 123 -146 218 -167 236 -35 29 -26 42
30 42 55 0 55 2 8 144 -32 97 -34 110 -20 118 9 5 16 18 16 28 0 17 -7 20 -45
20 -25 0 -45 -2 -45 -5z"/>
<path d="M534 1152 c-13 -9 -25 -52 -15 -52 11 0 12 -337 1 -366 -13 -33 -24
-30 -38 11 -42 115 -208 122 -261 11 -12 -23 -21 -52 -21 -64 0 -37 25 -86 59
-115 62 -52 179 -29 216 42 8 17 15 36 15 43 0 7 11 23 24 35 19 19 24 36 30
105 8 109 10 347 3 354 -1 2 -7 0 -13 -4z m-163 -373 c15 -15 20 -30 17 -54
-3 -28 0 -35 17 -39 24 -6 43 -42 37 -68 -3 -15 -29 -30 -57 -33 -17 -2 -45
33 -45 55 0 15 -6 20 -25 20 -34 0 -65 33 -65 70 0 62 77 93 121 49z"/>
<path d="M310 730 c0 -5 5 -10 10 -10 6 0 10 5 10 10 0 6 -4 10 -10 10 -5 0
-10 -4 -10 -10z"/>
<path d="M1836 1122 c-2 -4 0 -14 5 -22 8 -13 10 -13 19 0 5 8 10 18 10 23 0
10 -28 9 -34 -1z"/>
<path d="M1976 1112 c-3 -5 37 -51 89 -102 76 -76 95 -90 101 -76 3 9 4 20 0
23 -3 4 -6 -2 -6 -12 0 -15 -12 -8 -50 30 -52 51 -62 74 -32 76 11 0 12 2 4 6
-7 3 -18 0 -26 -6 -9 -8 -21 -2 -45 23 -33 34 -33 34 -10 39 23 4 23 4 2 6
-12 0 -24 -3 -27 -7z"/>
<path d="M2074 1110 c37 -11 65 -38 82 -75 9 -21 13 -24 14 -11 0 27 -73 96
-101 95 -22 -1 -22 -1 5 -9z"/>
<path d="M586 1095 c3 -6 0 -32 -5 -58 -7 -42 -6 -47 9 -47 13 0 21 11 25 33
4 17 14 41 21 52 20 28 18 30 -20 30 -18 0 -32 -5 -30 -10z"/>
<path d="M1980 1011 c0 -39 4 -51 15 -51 8 0 15 -7 15 -15 0 -11 12 -15 51
-15 28 0 48 4 44 9 -3 5 -21 7 -39 4 -48 -7 -80 25 -73 73 3 18 1 36 -4 39 -5
4 -9 -16 -9 -44z"/>
<path d="M40 1026 c0 -2 8 -10 18 -17 15 -13 16 -12 3 4 -13 16 -21 21 -21 13z"/>
<path d="M2035 990 c21 -22 41 -37 44 -35 5 6 -65 75 -76 75 -4 0 10 -18 32
-40z"/>
<path d="M1936 992 c4 -14 0 -22 -13 -25 -17 -4 -17 -5 0 -6 21 -1 34 26 19
41 -8 8 -9 5 -6 -10z"/>
<path d="M2171 984 c0 -11 3 -14 6 -6 3 7 2 16 -1 19 -3 4 -6 -2 -5 -13z"/>
<path d="M1900 934 c0 -19 40 -64 73 -80 40 -21 105 -14 147 16 17 12 29 24
26 27 -2 3 -15 -4 -27 -16 -29 -26 -36 -26 -60 2 l-20 22 17 -27 c16 -28 16
-28 -9 -28 -20 0 -27 6 -30 28 l-4 27 -2 -27 c0 -16 -3 -28 -6 -28 -20 0 -69
36 -85 63 -11 18 -20 27 -20 21z"/>
<path d="M1778 922 c-22 -3 -28 -9 -28 -26 0 -32 47 -42 73 -17 17 17 17 18 0
32 -10 8 -30 13 -45 11z"/>
</g>
</svg>
